<svg width="512" height="512" viewBox="0 0 512 512" fill="none" xmlns="http://www.w3.org/2000/svg">
  <rect width="512" height="512" rx="64" fill="#3b82f6"/>
  <path d="M256 128c-70.7 0-128 57.3-128 128s57.3 128 128 128 128-57.3 128-128-57.3-128-128-128zm0 192c-35.3 0-64-28.7-64-64s28.7-64 64-64 64 28.7 64 64-28.7 64-64 64z" fill="white"/>
  <path d="M256 192c-17.7 0-32 14.3-32 32h16c0-8.8 7.2-16 16-16s16 7.2 16 16-7.2 16-16 16h-8v16h8c17.7 0 32-14.3 32-32s-14.3-32-32-32z" fill="white"/>
  <text x="256" y="420" font-family="Arial, sans-serif" font-size="48" font-weight="bold" text-anchor="middle" fill="white">D1H</text>
</svg>
